<?xml version="1.0" encoding="UTF-8"?>
<svg id="Calque_2" data-name="Calque 2" xmlns="http://www.w3.org/2000/svg" viewBox="0 0 139.59 31.12">
  <defs>
    <style>
      .cls-1, .cls-2 {
        stroke-width: 0px;
        fill: #fbfbf9;
      }

      .cls-2 {
        fill: #fbfbf9;
      }
    </style>
  </defs>
  <g id="Calque_11" data-name="Calque 11">
    <g id="gauss1">
      <g>
        <path class="cls-1" d="M83.19,15.43v15.69h-4.32v-14.38c0-2.99-.61-5.01-3.88-5.01s-5.19,2.24-5.19,5.63v13.77h-4.32v-14.38c0-2.99-.61-5.01-3.88-5.01s-5.19,2.24-5.19,5.63l-.22,13.77h-4.11V8.64h4.11v2.81h.09c1.19-1.69,3.27-3.41,6.66-3.41,3.13,0,5.08,1.38,5.96,3.85h.09c1.63-2.12,3.93-3.85,7.37-3.85,4.55,0,6.84,2.68,6.84,7.39Z"/>
        <path class="cls-1" d="M87.73,4.75V0h4.97v4.75h-4.97ZM87.95,31.11V8.64h4.32v22.47h-4.32Z"/>
        <path class="cls-1" d="M109.55,8.24v4.19c-.53-.09-.93-.13-1.46-.13-3.93,0-6.75,2.98-6.75,7.31v11.51h-4.32V8.64h4.32v4.32h.09c1.19-2.85,3-4.86,6.05-4.86.79,0,1.41.04,2.07.13Z"/>
        <path class="cls-1" d="M110.47,24.68c0-5.01,3.78-6.51,9.37-7.57,3.52-.66,5.67-1.1,5.67-3.3,0-1.63-.97-2.99-4.27-2.99-3.91,0-5.1,1.23-5.32,4.3h-4.4c.22-4.39,3.04-7.78,9.9-7.78,4.62,0,8.31,1.94,8.44,7.74v10.29c-.13,1.63.09,2.46.93,2.46.13,0,.26,0,.59-.04v2.64c-.81.18-1.55.26-2.26.26-2.16,0-3.3-.84-3.56-3.26h-.09c-1.45,2.21-4,3.66-7.65,3.66-4.49,0-7.35-2.6-7.35-6.42ZM125.54,21.73v-3.21c-.7.66-2.64,1.14-4.93,1.63-3.96.79-5.63,1.89-5.63,4.22,0,2.11,1.14,3.26,3.83,3.26,3.87,0,6.73-1.98,6.73-5.89Z"/>
        <path class="cls-1" d="M134.62,4.75V0h4.97v4.75h-4.97ZM135.05,31.11V8.64h4.32v22.47h-4.32Z"/>
        <path class="cls-2" d="M41.11,26.91c-2.02-.46-4.41-4.82-6.53-8.7-2.93-5.35-5.96-10.88-10.1-10.88-2.24,0-4.11,1.61-5.81,3.92-1.2,1.74-2.32,3.68-3.35,5.54-.21.39-.42.78-.63,1.17-2.26,4.22-4.82,8.99-7.18,9.05h-2.76c1.27-3,2.02-7.13,2.75-11.18.57-3.18,1.16-6.46,1.95-8.77.35-1.05,1.07-2.81,1.84-2.81,1.72,0,3.1,7.05,3.96,11.56.86-1.52,1.77-3.08,2.74-4.52-.43-2.06-.9-4.02-1.47-5.68C16.03,4.24,14.58.04,11.27.04s-4.67,4.1-5.12,5.44c-.89,2.64-1.52,6.11-2.12,9.46-.82,4.53-2.03,11.26-3.77,11.95-.16.06-.29.24-.25.41v3.2c-.05.36.24.65.6.6h6.89c3.75.04,6.5-4.18,9.05-8.82h0c.31-.57.62-1.14.92-1.71.52-.97,1.11-2.07,1.7-3.13h0c1.77-3.15,3.63-5.92,5.3-5.92,2.23,0,4.84,4.77,7.14,8.97,1.27,2.33,2.52,4.6,3.84,6.5h-12.86c-.53-.05-1.19-1.09-1.8-2.89-.55-1.61-1.02-3.68-1.45-5.87-.49.88-.96,1.77-1.4,2.58-.39.73-.79,1.48-1.2,2.22,1.18,4.66,2.78,8.11,5.85,8.07h18.21c.36.04.65-.25.7-.6v-3.17c-.05-.2-.19-.38-.39-.42Z"/>
      </g>
    </g>
  </g>
</svg>